<svg width="235" height="235" xmlns="http://www.w3.org/2000/svg" xmlns:svg="http://www.w3.org/2000/svg">
 <g display="inline">
  <title>rain</title>
  <g transform="rotate(15 98.21786499023426,156.58596801757812) " id="svg_52">
   <line stroke="#aad4ff" transform="rotate(18 45.40619659423823,173.56251525878906) " id="svg_29" y2="175.81252" x2="46.24995" y1="171.31252" x1="44.56245" stroke-linecap="null" stroke-linejoin="null" stroke-dasharray="null" fill="none"/>
   <line id="svg_37" transform="rotate(23 94.90619659423828,192.68751525878906) " y2="194.93752" x2="95.74995" y1="190.43752" x1="94.06245" stroke-linecap="null" stroke-linejoin="null" stroke-dasharray="null" stroke="#aad4ff" fill="none"/>
   <line id="svg_38" stroke="#aad4ff" transform="rotate(18 94.06484222412105,165.40614318847656) " y2="167.65614" x2="94.9086" y1="163.15614" x1="93.2211" stroke-linecap="null" stroke-linejoin="null" stroke-dasharray="null" fill="none"/>
   <line id="svg_47" stroke="#aad4ff" transform="rotate(18 94.06482696533197,165.4061431884766) " y2="167.65614" x2="94.90859" y1="163.15614" x1="93.22109" stroke-linecap="null" stroke-linejoin="null" stroke-dasharray="null" fill="none"/>
   <line id="svg_50" stroke="#aad4ff" transform="rotate(18 55.531242370605355,191.8436431884766) " y2="194.09364" x2="56.37501" y1="189.59364" x1="54.68751" stroke-linecap="null" stroke-linejoin="null" stroke-dasharray="null" fill="none"/>
   <line id="svg_64" transform="rotate(23 62.84374999999993,182) " y2="184.25" x2="63.68751" y1="179.75" x1="62.00001" stroke-linecap="null" stroke-linejoin="null" stroke-dasharray="null" stroke="#aad4ff" fill="none"/>
   <line id="svg_65" transform="rotate(23 18.968757629394574,180.875) " y2="183.125" x2="19.81251" y1="178.625" x1="18.12501" stroke-linecap="null" stroke-linejoin="null" stroke-dasharray="null" stroke="#aad4ff" fill="none"/>
   <line id="svg_68" transform="rotate(23 62.84376525878888,182.00000000000003) " y2="184.25" x2="63.6875" y1="179.75" x1="62" stroke-linecap="null" stroke-linejoin="null" stroke-dasharray="null" stroke="#aad4ff" fill="none"/>
   <line id="svg_71" transform="rotate(23 107.84375762939467,154.99999999999997) " y2="157.25" x2="108.68751" y1="152.75" x1="107.00001" stroke-linecap="null" stroke-linejoin="null" stroke-dasharray="null" stroke="#aad4ff" fill="none"/>
   <line id="svg_75" transform="rotate(23 113.1851654052735,182.56250000000003) " y2="184.8125" x2="114.02891" y1="180.3125" x1="112.34141" stroke-linecap="null" stroke-linejoin="null" stroke-dasharray="null" stroke="#aad4ff" fill="none"/>
   <line id="svg_77" transform="rotate(23 178.71876525878906,136.4375) " y2="138.6875" x2="179.56251" y1="134.1875" x1="177.87501" stroke-linecap="null" stroke-linejoin="null" stroke-dasharray="null" stroke="#aad4ff" fill="none"/>
   <line id="svg_87" stroke="#aad4ff" transform="rotate(18 60.59138488769523,147.4061431884766) " y2="149.65614" x2="61.43516" y1="145.15614" x1="59.74766" stroke-linecap="null" stroke-linejoin="null" stroke-dasharray="null" fill="none"/>
   <line id="svg_88" transform="rotate(23 53.27891540527335,164.28114318847656) " y2="166.53114" x2="54.12265" y1="162.03114" x1="52.43515" stroke-linecap="null" stroke-linejoin="null" stroke-dasharray="null" stroke="#aad4ff" fill="none"/>
   <line id="svg_89" transform="rotate(23 24.02890014648434,136.4375) " y2="138.6875" x2="24.87266" y1="134.1875" x1="23.18516" stroke-linecap="null" stroke-linejoin="null" stroke-dasharray="null" stroke="#aad4ff" fill="none"/>
   <line id="svg_90" transform="rotate(23 45.96641540527351,176.37499999999997) " y2="178.625" x2="46.81016" y1="174.125" x1="45.12266" stroke-linecap="null" stroke-linejoin="null" stroke-dasharray="null" stroke="#aad4ff" fill="none"/>
   <line id="svg_91" transform="rotate(23 29.37031555175772,164.00000000000003) " y2="166.25" x2="30.21406" y1="161.75" x1="28.52656" stroke-linecap="null" stroke-linejoin="null" stroke-dasharray="null" stroke="#aad4ff" fill="none"/>
   <line id="svg_92" stroke="#aad4ff" transform="rotate(18 8.653869628906167,153.06239318847656) " y2="155.3124" x2="9.49766" y1="150.8124" x1="7.81016" stroke-linecap="null" stroke-linejoin="null" stroke-dasharray="null" fill="none"/>
   <line id="svg_93" transform="rotate(23 1.3414306640624223,169.9374084472656) " y2="172.1874" x2="2.18515" y1="167.6874" x1="0.49765" stroke-linecap="null" stroke-linejoin="null" stroke-dasharray="null" stroke="#aad4ff" fill="none"/>
   <line id="svg_3" transform="rotate(23 143.2824401855469,130.09385681152344) " y2="132.34386" x2="144.12618" y1="127.84386" x1="142.43868" stroke-linecap="null" stroke-linejoin="null" stroke-dasharray="null" stroke="#aad4ff" fill="none"/>
   <line id="svg_4" stroke="#aad4ff" transform="rotate(18 96.0300598144531,122.5) " y2="124.75" x2="96.87383" y1="120.25" x1="95.18633" stroke-linecap="null" stroke-linejoin="null" stroke-dasharray="null" fill="none"/>
   <line id="svg_5" transform="rotate(23 88.71755981445312,139.37499999999997) " y2="141.625" x2="89.56132" y1="137.125" x1="87.87382" stroke-linecap="null" stroke-linejoin="null" stroke-dasharray="null" stroke="#aad4ff" fill="none"/>
   <line id="svg_7" stroke="#aad4ff" transform="rotate(18 41.50350952148451,146.49999999999997) " y2="148.75" x2="42.34727" y1="144.25" x1="40.65977" stroke-linecap="null" stroke-linejoin="null" stroke-dasharray="null" fill="none"/>
   <line id="svg_9" stroke="#aad4ff" transform="rotate(18 41.50350952148451,146.49999999999997) " y2="148.75" x2="42.34726" y1="144.25" x1="40.65976" stroke-linecap="null" stroke-linejoin="null" stroke-dasharray="null" fill="none"/>
   <line id="svg_10" transform="rotate(23 55.282440185546854,136.09385681152344) " y2="138.34386" x2="56.12618" y1="133.84386" x1="54.43868" stroke-linecap="null" stroke-linejoin="null" stroke-dasharray="null" stroke="#aad4ff" fill="none"/>
   <line id="svg_12" stroke="#aad4ff" transform="rotate(18 8.030059814453157,128.5) " y2="130.75" x2="8.87383" y1="126.25" x1="7.18633" stroke-linecap="null" stroke-linejoin="null" stroke-dasharray="null" fill="none"/>
   <line id="svg_13" transform="rotate(23 0.717590332031319,145.37499999999997) " y2="147.625" x2="1.56132" y1="143.125" x1="-0.12618" stroke-linecap="null" stroke-linejoin="null" stroke-dasharray="null" stroke="#aad4ff" fill="none"/>
   <line id="svg_14" stroke="#aad4ff" transform="rotate(18 113.50350952148435,169.5) " y2="171.75" x2="114.34727" y1="167.25" x1="112.65977" stroke-linecap="null" stroke-linejoin="null" stroke-dasharray="null" fill="none"/>
   <line id="svg_15" stroke="#aad4ff" transform="rotate(18 113.50350952148435,169.5) " y2="171.75" x2="114.34726" y1="167.25" x1="112.65976" stroke-linecap="null" stroke-linejoin="null" stroke-dasharray="null" fill="none"/>
   <line id="svg_17" stroke="#aad4ff" transform="rotate(18 80.03005981445314,151.5) " y2="153.75" x2="80.87383" y1="149.25" x1="79.18633" stroke-linecap="null" stroke-linejoin="null" stroke-dasharray="null" fill="none"/>
   <line id="svg_18" transform="rotate(23 72.7175903320313,168.375) " y2="170.625" x2="73.56132" y1="166.125" x1="71.87382" stroke-linecap="null" stroke-linejoin="null" stroke-dasharray="null" stroke="#aad4ff" fill="none"/>
   <line id="svg_22" transform="rotate(23 195.71817016601565,126.82806396484375) " y2="129.07807" x2="196.56191" y1="124.57807" x1="194.87441" stroke-linecap="null" stroke-linejoin="null" stroke-dasharray="null" stroke="#aad4ff" fill="none"/>
   <line id="svg_23" transform="rotate(23 160.28186035156264,120.48443603515624) " y2="122.73443" x2="161.12559" y1="118.23443" x1="159.43809" stroke-linecap="null" stroke-linejoin="null" stroke-dasharray="null" stroke="#aad4ff" fill="none"/>
   <line stroke="#aad4ff" transform="rotate(18 80.03005981445314,151.5) " y2="153.75" x2="80.87383" y1="149.25" x1="79.18633" stroke-linecap="null" stroke-linejoin="null" stroke-dasharray="null" fill="none" id="svg_1"/>
   <line transform="rotate(23 94.90619659423828,192.68751525878906) " y2="194.93752" x2="95.74995" y1="190.43752" x1="94.06245" stroke-linecap="null" stroke-linejoin="null" stroke-dasharray="null" stroke="#aad4ff" fill="none" id="svg_2"/>
   <line stroke="#aad4ff" transform="rotate(18 94.06484222412105,165.40614318847656) " y2="167.65614" x2="94.9086" y1="163.15614" x1="93.2211" stroke-linecap="null" stroke-linejoin="null" stroke-dasharray="null" fill="none" id="svg_11"/>
   <line stroke="#aad4ff" transform="rotate(18 94.06482696533197,165.4061431884766) " y2="167.65614" x2="94.90859" y1="163.15614" x1="93.22109" stroke-linecap="null" stroke-linejoin="null" stroke-dasharray="null" fill="none" id="svg_16"/>
   <line transform="rotate(23 107.84375762939467,154.99999999999997) " y2="157.25" x2="108.68751" y1="152.75" x1="107.00001" stroke-linecap="null" stroke-linejoin="null" stroke-dasharray="null" stroke="#aad4ff" fill="none" id="svg_19"/>
   <line transform="rotate(23 113.1851654052735,182.56250000000003) " y2="184.8125" x2="114.02891" y1="180.3125" x1="112.34141" stroke-linecap="null" stroke-linejoin="null" stroke-dasharray="null" stroke="#aad4ff" fill="none" id="svg_20"/>
   <line transform="rotate(23 88.71755981445312,139.37499999999997) " y2="141.625" x2="89.56132" y1="137.125" x1="87.87382" stroke-linecap="null" stroke-linejoin="null" stroke-dasharray="null" stroke="#aad4ff" fill="none" id="svg_21"/>
   <line stroke="#aad4ff" transform="rotate(18 113.50350952148435,169.5) " y2="171.75" x2="114.34727" y1="167.25" x1="112.65977" stroke-linecap="null" stroke-linejoin="null" stroke-dasharray="null" fill="none" id="svg_24"/>
   <line stroke="#aad4ff" transform="rotate(18 113.50350952148435,169.5) " y2="171.75" x2="114.34726" y1="167.25" x1="112.65976" stroke-linecap="null" stroke-linejoin="null" stroke-dasharray="null" fill="none" id="svg_25"/>
   <line transform="rotate(23 72.7175903320313,168.375) " y2="170.625" x2="73.56132" y1="166.125" x1="71.87382" stroke-linecap="null" stroke-linejoin="null" stroke-dasharray="null" stroke="#aad4ff" fill="none" id="svg_26"/>
   <line id="svg_27" transform="rotate(23 152.79330444335935,187.15626525878906) " y2="189.40626" x2="153.63705" y1="184.90626" x1="151.94955" stroke-linecap="null" stroke-linejoin="null" stroke-dasharray="null" stroke="#aad4ff" fill="none"/>
   <line id="svg_28" stroke="#aad4ff" transform="rotate(18 151.95193481445318,159.87487792968741) " y2="162.12488" x2="152.7957" y1="157.62488" x1="151.1082" stroke-linecap="null" stroke-linejoin="null" stroke-dasharray="null" fill="none"/>
   <line id="svg_30" stroke="#aad4ff" transform="rotate(18 151.95193481445318,159.87487792968741) " y2="162.12488" x2="152.79569" y1="157.62488" x1="151.10819" stroke-linecap="null" stroke-linejoin="null" stroke-dasharray="null" fill="none"/>
   <line id="svg_31" transform="rotate(23 165.73086547851557,149.46875) " y2="151.71874" x2="166.57461" y1="147.21874" x1="164.88711" stroke-linecap="null" stroke-linejoin="null" stroke-dasharray="null" stroke="#aad4ff" fill="none"/>
   <line id="svg_32" transform="rotate(23 171.07226562499983,177.03125) " y2="179.28124" x2="171.91601" y1="174.78124" x1="170.22851" stroke-linecap="null" stroke-linejoin="null" stroke-dasharray="null" stroke="#aad4ff" fill="none"/>
   <line id="svg_33" transform="rotate(23 146.6046752929687,133.84375000000003) " y2="136.09374" x2="147.44842" y1="131.59374" x1="145.76092" stroke-linecap="null" stroke-linejoin="null" stroke-dasharray="null" stroke="#aad4ff" fill="none"/>
   <line id="svg_34" stroke="#aad4ff" transform="rotate(18 171.39059448242173,163.96873474121097) " y2="166.21874" x2="172.23437" y1="161.71874" x1="170.54687" stroke-linecap="null" stroke-linejoin="null" stroke-dasharray="null" fill="none"/>
   <line id="svg_35" stroke="#aad4ff" transform="rotate(18 171.39059448242173,163.96873474121097) " y2="166.21874" x2="172.23436" y1="161.71874" x1="170.54686" stroke-linecap="null" stroke-linejoin="null" stroke-dasharray="null" fill="none"/>
   <line id="svg_36" stroke="#aad4ff" transform="rotate(18 137.9171447753905,145.96875000000003) " y2="148.21874" x2="138.76093" y1="143.71874" x1="137.07343" stroke-linecap="null" stroke-linejoin="null" stroke-dasharray="null" fill="none"/>
   <line id="svg_39" transform="rotate(23 130.60470581054688,162.84375) " y2="165.09374" x2="131.44842" y1="160.59374" x1="129.76092" stroke-linecap="null" stroke-linejoin="null" stroke-dasharray="null" stroke="#aad4ff" fill="none"/>
   <line id="svg_40" stroke="#aad4ff" transform="rotate(18 137.9171447753905,145.96875000000003) " y2="148.21874" x2="138.76093" y1="143.71874" x1="137.07343" stroke-linecap="null" stroke-linejoin="null" stroke-dasharray="null" fill="none"/>
   <line id="svg_41" transform="rotate(23 152.79330444335935,187.15626525878906) " y2="189.40626" x2="153.63705" y1="184.90626" x1="151.94955" stroke-linecap="null" stroke-linejoin="null" stroke-dasharray="null" stroke="#aad4ff" fill="none"/>
   <line id="svg_42" stroke="#aad4ff" transform="rotate(18 151.95193481445318,159.87487792968741) " y2="162.12488" x2="152.7957" y1="157.62488" x1="151.1082" stroke-linecap="null" stroke-linejoin="null" stroke-dasharray="null" fill="none"/>
   <line id="svg_43" stroke="#aad4ff" transform="rotate(18 151.95193481445318,159.87487792968741) " y2="162.12488" x2="152.79569" y1="157.62488" x1="151.10819" stroke-linecap="null" stroke-linejoin="null" stroke-dasharray="null" fill="none"/>
   <line id="svg_44" transform="rotate(23 165.73086547851557,149.46875) " y2="151.71874" x2="166.57461" y1="147.21874" x1="164.88711" stroke-linecap="null" stroke-linejoin="null" stroke-dasharray="null" stroke="#aad4ff" fill="none"/>
   <line id="svg_45" transform="rotate(23 171.07226562499983,177.03125) " y2="179.28124" x2="171.91601" y1="174.78124" x1="170.22851" stroke-linecap="null" stroke-linejoin="null" stroke-dasharray="null" stroke="#aad4ff" fill="none"/>
   <line id="svg_46" transform="rotate(23 146.6046752929687,133.84375000000003) " y2="136.09374" x2="147.44842" y1="131.59374" x1="145.76092" stroke-linecap="null" stroke-linejoin="null" stroke-dasharray="null" stroke="#aad4ff" fill="none"/>
   <line id="svg_48" stroke="#aad4ff" transform="rotate(18 171.39059448242173,163.96873474121097) " y2="166.21874" x2="172.23437" y1="161.71874" x1="170.54687" stroke-linecap="null" stroke-linejoin="null" stroke-dasharray="null" fill="none"/>
   <line id="svg_49" stroke="#aad4ff" transform="rotate(18 171.39059448242173,163.96873474121097) " y2="166.21874" x2="172.23436" y1="161.71874" x1="170.54686" stroke-linecap="null" stroke-linejoin="null" stroke-dasharray="null" fill="none"/>
   <line id="svg_51" transform="rotate(23 130.60470581054688,162.84375) " y2="165.09374" x2="131.44842" y1="160.59374" x1="129.76092" stroke-linecap="null" stroke-linejoin="null" stroke-dasharray="null" stroke="#aad4ff" fill="none"/>
  </g>
 </g>
 <g display="inline">
  <title>cloud2</title>
  <ellipse id="svg_8" ry="43.5" rx="80" cy="95" cx="146.5" stroke-linecap="null" stroke-linejoin="null" stroke-dasharray="null" stroke-width="0" fill="#aad4ff" stroke="#000000" transform="rotate(5 146.50000000000014,95.00000000000007) "/>
 </g>
 <g>
  <title>cloud</title>
  <ellipse id="svg_6" ry="59" rx="114" cy="63" cx="116.5" stroke-linecap="null" stroke-linejoin="null" stroke-dasharray="null" stroke-width="0" fill="#aad4ff" stroke="#000000" transform="rotate(5 116.4999999999998,63.0000000000001) "/>
 </g>
</svg>