<svg width="235" height="235" xmlns="http://www.w3.org/2000/svg" xmlns:svg="http://www.w3.org/2000/svg">
 <g>
  <title>rain</title>
  <line id="svg_29" stroke-opacity="0.3" fill-opacity="0" y2="186.5" x2="79" y1="124.5" x1="127" stroke-linecap="null" stroke-linejoin="null" stroke-dasharray="null" stroke="#495073" fill="none"/>
  <line id="svg_31" y2="173" x2="106" y1="143" x1="128" fill-opacity="0" stroke-linecap="null" stroke-linejoin="null" stroke-dasharray="null" stroke="#495073" fill="none"/>
  <line id="svg_33" y2="193.5" x2="148" y1="163.5" x1="170" fill-opacity="0" stroke-linecap="null" stroke-linejoin="null" stroke-dasharray="null" stroke="#495073" fill="none"/>
  <line id="svg_40" y2="178" x2="186.25" y1="148" x1="208.25" fill-opacity="0" stroke-linecap="null" stroke-linejoin="null" stroke-dasharray="null" stroke="#495073" fill="none"/>
  <line id="svg_45" stroke-opacity="0.3" fill-opacity="0" y2="194.25" x2="44.75" y1="132.25" x1="92.75" stroke-linecap="null" stroke-linejoin="null" stroke-dasharray="null" stroke="#495073" fill="none"/>
  <line id="svg_49" y2="144.25" x2="19" y1="114.25" x1="41" fill-opacity="0" stroke-linecap="null" stroke-linejoin="null" stroke-dasharray="null" stroke="#495073" fill="none"/>
  <line id="svg_7" fill-opacity="0" y2="222.75" x2="108.5" y1="160.75" x1="156.5" stroke-linecap="null" stroke-linejoin="null" stroke-dasharray="null" stroke="#495073" fill="none"/>
  <line id="svg_1" fill-opacity="0" y2="203.5" x2="101.375" y1="141.5" x1="149.375" stroke-linecap="null" stroke-linejoin="null" stroke-dasharray="null" stroke="#495073" fill="none"/>
  <line id="svg_3" y2="174" x2="94.375" y1="144" x1="116.375" fill-opacity="0" stroke-linecap="null" stroke-linejoin="null" stroke-dasharray="null" stroke="#495073" fill="none"/>
  <line id="svg_17" y2="151.25" x2="45.375" y1="121.25" x1="67.375" fill-opacity="0" stroke-linecap="null" stroke-linejoin="null" stroke-dasharray="null" stroke="#495073" fill="none"/>
  <line id="svg_20" y2="173" x2="67.375" y1="143" x1="89.375" fill-opacity="0" stroke-linecap="null" stroke-linejoin="null" stroke-dasharray="null" stroke="#495073" fill="none"/>
  <line stroke="#495073" id="svg_22" fill-opacity="0" y2="191" x2="85.375" y1="153" x1="113.375" stroke-linecap="null" stroke-linejoin="null" stroke-dasharray="null" fill="none"/>
  <line id="svg_24" fill-opacity="0" y2="181" x2="31.375" y1="119" x1="79.375" stroke-linecap="null" stroke-linejoin="null" stroke-dasharray="null" stroke="#495073" fill="none"/>
  <line id="svg_41" y2="201" x2="134.625" y1="171" x1="156.625" fill-opacity="0" stroke-linecap="null" stroke-linejoin="null" stroke-dasharray="null" stroke="#495073" fill="none"/>
  <line id="svg_53" y2="176" x2="109.375" y1="146" x1="131.375" fill-opacity="0" stroke-linecap="null" stroke-linejoin="null" stroke-dasharray="null" stroke="#495073" fill="none"/>
  <line y2="185.875" x2="69.25" y1="155.875" x1="91.25" fill-opacity="0" stroke-linecap="null" stroke-linejoin="null" stroke-dasharray="null" stroke="#495073" fill="none" id="svg_25"/>
  <line y2="192.875" x2="99.625" y1="162.875" x1="121.625" fill-opacity="0" stroke-linecap="null" stroke-linejoin="null" stroke-dasharray="null" stroke="#495073" fill="none" id="svg_57"/>
  <line y2="170.625" x2="84.625" y1="140.625" x1="106.625" fill-opacity="0" stroke-linecap="null" stroke-linejoin="null" stroke-dasharray="null" stroke="#495073" fill="none" id="svg_61"/>
  <line y2="181.75" x2="129.9375" y1="151.75" x1="151.9375" fill-opacity="0" stroke-linecap="null" stroke-linejoin="null" stroke-dasharray="null" stroke="#495073" fill="none" id="svg_66"/>
  <line stroke-opacity="0.3" fill-opacity="0" y2="180.5" x2="139.0625" y1="118.5" x1="187.0625" stroke-linecap="null" stroke-linejoin="null" stroke-dasharray="null" stroke="#495073" fill="none" id="svg_72"/>
  <line y2="202.75" x2="29.9375" y1="172.75" x1="51.9375" fill-opacity="0" stroke-linecap="null" stroke-linejoin="null" stroke-dasharray="null" stroke="#495073" fill="none" id="svg_78"/>
  <line stroke-opacity="0.3" fill-opacity="0" y2="170.5" x2="14.6875" y1="108.5" x1="62.6875" stroke-linecap="null" stroke-linejoin="null" stroke-dasharray="null" stroke="#495073" fill="none" id="svg_79"/>
  <line y2="158" x2="59.9375" y1="128" x1="81.9375" fill-opacity="0" stroke-linecap="null" stroke-linejoin="null" stroke-dasharray="null" stroke="#495073" fill="none" id="svg_80"/>
  <line y2="184.5" x2="38.9375" y1="154.5" x1="60.9375" fill-opacity="0" stroke-linecap="null" stroke-linejoin="null" stroke-dasharray="null" stroke="#495073" fill="none" id="svg_81"/>
  <line stroke-opacity="0.3" fill-opacity="0" y2="186" x2="9.0625" y1="124" x1="57.0625" stroke-linecap="null" stroke-linejoin="null" stroke-dasharray="null" stroke="#495073" fill="none" id="svg_85"/>
  <line y2="144" x2="29.3125" y1="114" x1="51.3125" fill-opacity="0" stroke-linecap="null" stroke-linejoin="null" stroke-dasharray="null" stroke="#495073" fill="none" id="svg_87"/>
  <line stroke-opacity="0.3" fill-opacity="0" y2="188.625" x2="163.1875" y1="126.625" x1="211.1875" stroke-linecap="null" stroke-linejoin="null" stroke-dasharray="null" stroke="#495073" fill="none" id="svg_23"/>
  <line fill-opacity="0" y2="135.625" x2="10.5625" y1="73.625" x1="58.5625" stroke-linecap="null" stroke-linejoin="null" stroke-dasharray="null" stroke="#495073" fill="none" id="svg_51"/>
  <line stroke="#495073" fill-opacity="0" y2="179.125" x2="165.5625" y1="141.125" x1="193.5625" stroke-linecap="null" stroke-linejoin="null" stroke-dasharray="null" fill="none" id="svg_76"/>
  <line stroke-opacity="0.3" fill-opacity="0" y2="183.125" x2="164.25" y1="121.125" x1="212.25" stroke-linecap="null" stroke-linejoin="null" stroke-dasharray="null" stroke="#495073" fill="none" id="svg_92"/>
  <line fill-opacity="0" y2="188.5" x2="11" y1="126.5" x1="59" stroke-linecap="null" stroke-linejoin="null" stroke-dasharray="null" stroke="#495073" fill="none" id="svg_2"/>
  <line fill-opacity="0" y2="226.5" x2="29" y1="164.5" x1="77" stroke-linecap="null" stroke-linejoin="null" stroke-dasharray="null" stroke="#495073" fill="none" id="svg_4"/>
  <line fill-opacity="0" y2="179.5" x2="-13" y1="117.5" x1="35" stroke-linecap="null" stroke-linejoin="null" stroke-dasharray="null" stroke="#495073" fill="none" id="svg_5"/>
  <line stroke="#495073" fill-opacity="0" y2="217.5" x2="71" y1="179.5" x1="99" stroke-linecap="null" stroke-linejoin="null" stroke-dasharray="null" fill="none" id="svg_9"/>
  <line stroke-opacity="0.3" fill-opacity="0" y2="236.5" x2="42" y1="174.5" x1="90" stroke-linecap="null" stroke-linejoin="null" stroke-dasharray="null" stroke="#495073" fill="none" id="svg_10"/>
  <line y2="116.5" x2="9" y1="86.5" x1="31" fill-opacity="0" stroke-linecap="null" stroke-linejoin="null" stroke-dasharray="null" stroke="#495073" fill="none" id="svg_12"/>
  <line fill-opacity="0" y2="133" x2="-15" y1="71" x1="33" stroke-linecap="null" stroke-linejoin="null" stroke-dasharray="null" stroke="#495073" fill="none" id="svg_13"/>
  <line stroke-opacity="0.3" fill-opacity="0" y2="143" x2="-2" y1="81" x1="46" stroke-linecap="null" stroke-linejoin="null" stroke-dasharray="null" stroke="#495073" fill="none" id="svg_14"/>
  <line stroke-opacity="0.3" fill-opacity="0" y2="124" x2="-42" y1="62" x1="6" stroke-linecap="null" stroke-linejoin="null" stroke-dasharray="null" stroke="#495073" fill="none" id="svg_15"/>
 </g>
 <g>
  <title>lighting</title>
  <g stroke="null" id="svg_27" transform="rotate(16.262859344482422 70.43862152099591,151.41197204589847) " filter="url(#svg_20_blur)">
   <polygon stroke="#ffff00" id="svg_28" fill="#ffff00" points="51.95901679992676,190.4657440185547 65.22241592407227,156.4188995361328 48.141035079956055,156.4188995361328 64.45319366455078,112.35816955566406 90.65019989013672,112.35816955566406 75.49205017089844,142.39955139160156 92.02767181396484,142.39955139160156 52.01011085510254,190.4657440185547 " stroke-width="0"/>
   <path stroke="#ffff00" id="svg_30" fill="#ffff00" d="m89.06991,113.35953l-13.67265,27.09534l-1.48548,2.94607l3.15854,0l12.86166,0l-34.98303,42.0199l10.61066,-27.23753l1.07623,-2.76581l-2.82887,0l-14.27706,0l15.56928,-42.05795l23.97066,0m3.15857,-2.00276l-28.42146,0l-17.0529,46.06347l17.0529,0l-13.26336,34.04691l1.89477,0l41.68483,-50.06899l-17.0529,0l15.15813,-30.04139l0,0l0,0l0,0z" stroke-width="0"/>
  </g>
 </g>
 <g display="inline">
  <title>cloud2</title>
  <ellipse id="svg_8" ry="43.5" rx="80" cy="95" cx="146.5" stroke-linecap="null" stroke-linejoin="null" stroke-dasharray="null" stroke-width="0" fill="#495073" stroke="#000000" transform="rotate(5 123.99999999999977,52.99999999999994) "/>
 </g>
 <g>
  <title>cloud</title>
  <ellipse id="svg_6" ry="59" rx="114" cy="63" cx="116.5" stroke-linecap="null" stroke-linejoin="null" stroke-dasharray="null" stroke-width="0" fill="#495073" stroke="#000000" transform="rotate(5 116.4999999999998,63.0000000000001) "/>
 </g>
 <defs>
  <filter id="svg_20_blur">
   <feGaussianBlur stdDeviation="3"/>
  </filter>
 </defs>
</svg>