<svg width="235" height="235" xmlns="http://www.w3.org/2000/svg" xmlns:svg="http://www.w3.org/2000/svg">
 <g>
  <title>snow</title>
  <polygon id="svg_19" fill="#dedddf" points="129.13770294189453,188 125.06884765625,195.04745483398438 116.93115234375,195.04745483398438 112.86229705810547,188 116.93115234375,180.95254516601562 125.06884765625,180.95254516601562 129.13770294189453,188 " stroke="#000000" stroke-width="0" fill-opacity="0.7" transform="rotate(45 121.00000000000009,187.99999999999997) "/>
  <polygon fill="#dedddf" points="134.16282653808594,215.5 131.33140563964844,220.0725860595703 125.66859436035156,220.0725860595703 122.83717346191406,215.5 125.66859436035156,210.9274139404297 131.33140563964844,210.9274139404297 134.16282653808594,215.5 " stroke-width="0" transform="rotate(45 128.50000000000014,215.49999999999991) " id="svg_20" stroke="#000000"/>
  <polygon fill="#dedddf" points="85.662841796875,205.5 82.8314208984375,210.0725860595703 77.1685791015625,210.0725860595703 74.337158203125,205.5 77.1685791015625,200.9274139404297 82.8314208984375,200.9274139404297 85.662841796875,205.5 " stroke-width="0" transform="rotate(45 80.0000000000001,205.49999999999997) " stroke="#000000" id="svg_21"/>
  <polygon fill="#f1eff2" points="169.1376953125,182.5 165.06884765625,189.54745483398438 156.93115234375,189.54745483398438 152.8623046875,182.5 156.93115234375,175.45254516601562 165.06884765625,175.45254516601562 169.1376953125,182.5 " stroke="#000000" stroke-width="0" transform="rotate(45 161.00000000000009,182.49999999999997) " id="svg_27"/>
  <polygon fill="#dedddf" points="202.662841796875,201.5 199.8314208984375,206.07257080078125 194.1685791015625,206.07257080078125 191.337158203125,201.5 194.1685791015625,196.9274139404297 199.8314208984375,196.9274139404297 202.662841796875,201.5 " stroke-width="0" transform="rotate(45 197.00000000000009,201.49999999999997) " stroke="#000000" id="svg_30"/>
  <polygon fill="#ffffff" points="67.662841796875,189.5 64.8314208984375,194.0725860595703 59.1685791015625,194.0725860595703 56.337158203125,189.5 59.1685791015625,184.9274139404297 64.8314208984375,184.9274139404297 67.662841796875,189.5 " stroke-width="0" transform="rotate(45 62.000000000000064,189.49999999999994) " stroke="#000000" id="svg_31"/>
  <polygon fill="#dedddf" points="25.662841796875,187.5 22.8314208984375,192.0725860595703 17.1685791015625,192.0725860595703 14.337158203125,187.5 17.1685791015625,182.9274139404297 22.8314208984375,182.9274139404297 25.662841796875,187.5 " stroke-width="0" fill-opacity="0.6" transform="rotate(45 20.0000000000001,187.49999999999997) " stroke="#000000" id="svg_32"/>
  <polygon fill="#dedddf" points="141.662841796875,156.5 138.8314208984375,161.0725860595703 133.1685791015625,161.0725860595703 130.337158203125,156.5 133.1685791015625,151.9274139404297 138.8314208984375,151.9274139404297 141.662841796875,156.5 " stroke-width="0" transform="rotate(45 136.00000000000009,156.49999999999997) " stroke="#000000" id="svg_33"/>
  <polygon fill="#ffffff" points="181.14849853515625,218.71875 179.80859375,220.90484619140625 177.12890625,220.90484619140625 175.78900146484375,218.71875 177.12890625,216.53265380859375 179.80859375,216.53265380859375 181.14849853515625,218.71875 " stroke-width="0" transform="rotate(45 178.46875000000014,218.71874999999997) " id="svg_34" stroke="null"/>
  <polygon fill="#ffffff" points="17.10162353515625,165.8359375 15.76171875,168.02203369140625 13.08203125,168.02203369140625 11.74212646484375,165.8359375 13.08203125,163.64984130859375 15.76171875,163.64984130859375 17.10162353515625,165.8359375 " stroke-width="0" transform="rotate(45 14.42187500000014,165.83593749999994) " stroke="null" id="svg_35"/>
  <polygon fill="#ffffff" points="208.39849853515625,158.0703125 207.05859375,160.25640869140625 204.37890625,160.25640869140625 203.03900146484375,158.0703125 204.37890625,155.88421630859375 207.05859375,155.88421630859375 208.39849853515625,158.0703125 " stroke-width="0" transform="rotate(45 205.71875,158.07031249999997) " stroke="null" id="svg_36"/>
  <polygon fill="#ffffff" points="117.42974853515625,166.0234375 116.08984375,168.20953369140625 113.41015625,168.20953369140625 112.07025146484375,166.0234375 113.41015625,163.83734130859375 116.08984375,163.83734130859375 117.42974853515625,166.0234375 " stroke-width="0" transform="rotate(45 114.75000000000006,166.02343749999997) " stroke="null" id="svg_37"/>
  <polygon fill="#ffffff" points="31.03912353515625,118.4140625 29.69921875,120.60015869140625 27.01953125,120.60015869140625 25.67962646484375,118.4140625 27.01953125,116.22796630859375 29.69921875,116.22796630859375 31.03912353515625,118.4140625 " stroke-width="0" transform="rotate(45 28.35937500000004,118.41406249999999) " stroke="null" id="svg_38"/>
  <polygon fill="#ffffff" points="196.662841796875,170.5 193.8314208984375,175.0725860595703 188.1685791015625,175.0725860595703 185.337158203125,170.5 188.1685791015625,165.9274139404297 193.8314208984375,165.9274139404297 196.662841796875,170.5 " stroke-width="0" transform="rotate(45 191,170.5) " stroke="#000000" id="svg_1"/>
  <polygon fill="#ffffff" points="208.39849853515625,158.0703125 207.05859375,160.25640869140625 204.37890625,160.25640869140625 203.03900146484375,158.0703125 204.37890625,155.88421630859375 207.05859375,155.88421630859375 208.39849853515625,158.0703125 " stroke-width="0" transform="rotate(45 205.71875,158.07031249999997) " stroke="null" id="svg_2"/>
  <polygon fill="#ffffff" points="181.14849853515625,218.71875 179.80859375,220.90484619140625 177.12890625,220.90484619140625 175.78900146484375,218.71875 177.12890625,216.53265380859375 179.80859375,216.53265380859375 181.14849853515625,218.71875 " stroke-width="0" transform="rotate(45 178.46875000000014,218.71874999999997) " stroke="null" id="svg_3"/>
  <polygon fill="#f1eff2" points="169.1376953125,182.5 165.06884765625,189.54745483398438 156.93115234375,189.54745483398438 152.8623046875,182.5 156.93115234375,175.45254516601562 165.06884765625,175.45254516601562 169.1376953125,182.5 " stroke="#000000" stroke-width="0" transform="rotate(45 161.00000000000009,182.49999999999997) " id="svg_4"/>
  <polygon fill="#dedddf" points="202.662841796875,201.5 199.8314208984375,206.07257080078125 194.1685791015625,206.07257080078125 191.337158203125,201.5 194.1685791015625,196.9274139404297 199.8314208984375,196.9274139404297 202.662841796875,201.5 " stroke-width="0" transform="rotate(45 197.00000000000009,201.49999999999997) " stroke="#000000" id="svg_5"/>
  <polygon fill="#ffffff" points="196.662841796875,170.5 193.8314208984375,175.0725860595703 188.1685791015625,175.0725860595703 185.337158203125,170.5 188.1685791015625,165.9274139404297 193.8314208984375,165.9274139404297 196.662841796875,170.5 " stroke-width="0" transform="rotate(45 197.00000000000009,201.49999999999997) " stroke="#000000" id="svg_7"/>
  <polygon id="svg_9" fill="#f1eff2" points="46.611358642578125,147.76173400878906 42.542510986328125,154.80918884277344 34.404815673828125,154.80918884277344 30.335968017578125,147.76173400878906 34.404815673828125,140.7142791748047 42.542510986328125,140.7142791748047 46.611358642578125,147.76173400878906 " stroke="#000000" stroke-width="0" transform="rotate(45 38.473663330078125,147.76173400878906) "/>
  <polygon id="svg_10" fill="#dedddf" points="79.13650512695312,165.76173400878906 76.30508422851562,170.3343048095703 70.64224243164062,170.3343048095703 67.81082153320312,165.76173400878906 70.64224243164062,161.18914794921875 76.30508422851562,161.18914794921875 79.13650512695312,165.76173400878906 " stroke-width="0" transform="rotate(45 73.47366333007818,165.761734008789) " stroke="#000000"/>
  <polygon id="svg_12" fill="#ffffff" points="74.13650512695312,135.76173400878906 71.30508422851562,140.33432006835938 65.64224243164062,140.33432006835938 62.810821533203125,135.76173400878906 65.64224243164062,131.18914794921875 71.30508422851562,131.18914794921875 74.13650512695312,135.76173400878906 " stroke-width="0" transform="rotate(45 68.47366333007812,135.76173400878906) " stroke="#000000"/>
  <polygon id="svg_13" fill="#ffffff" points="43.622161865234375,180.98048400878906 42.282257080078125,183.1665802001953 39.602569580078125,183.1665802001953 38.262664794921875,180.98048400878906 39.602569580078125,178.7943878173828 42.282257080078125,178.7943878173828 43.622161865234375,180.98048400878906 " stroke-width="0" transform="rotate(45 40.94241333007819,180.98048400878903) " stroke="null"/>
  <polygon id="svg_14" fill="#f1eff2" points="46.611358642578125,147.76173400878906 42.542510986328125,154.80918884277344 34.404815673828125,154.80918884277344 30.335968017578125,147.76173400878906 34.404815673828125,140.7142791748047 42.542510986328125,140.7142791748047 46.611358642578125,147.76173400878906 " stroke="#000000" stroke-width="0" transform="rotate(45 38.473663330078125,147.76173400878906) "/>
  <polygon id="svg_15" fill="#dedddf" points="16.136505126953125,136.76173400878906 13.305084228515625,141.3343048095703 7.642242431640625,141.3343048095703 4.810821533203125,136.76173400878906 7.642242431640625,132.18914794921875 13.305084228515625,132.18914794921875 16.136505126953125,136.76173400878906 " stroke-width="0" transform="rotate(45 10.473663330078132,136.76171875) " stroke="#000000"/>
  <polygon id="svg_16" fill="#ffffff" points="74.13650512695312,135.76173400878906 71.30508422851562,140.33432006835938 65.64224243164062,140.33432006835938 62.810821533203125,135.76173400878906 65.64224243164062,131.18914794921875 71.30508422851562,131.18914794921875 74.13650512695312,135.76173400878906 " stroke-width="0" transform="rotate(45 74.47366333007815,166.76173400878906) " stroke="#000000"/>
  <polygon fill="#dedddf" points="22.662841796875,99.50000762939453 19.8314208984375,104.07257843017578 14.1685791015625,104.07257843017578 11.337158203125,99.50000762939453 14.1685791015625,94.92742156982422 19.8314208984375,94.92742156982422 22.662841796875,99.50000762939453 " stroke-width="0" transform="rotate(45 17.00000000000006,99.50000762939452) " stroke="#000000" id="svg_17"/>
  <polygon fill="#dedddf" points="22.662841796875,99.50000762939453 19.8314208984375,104.07257843017578 14.1685791015625,104.07257843017578 11.337158203125,99.50000762939453 14.1685791015625,94.92742156982422 19.8314208984375,94.92742156982422 22.662841796875,99.50000762939453 " stroke-width="0" transform="rotate(45 17.00000000000006,99.50000762939452) " stroke="#000000" id="svg_18"/>
 </g>
 <g display="inline">
  <title>cloud2</title>
  <ellipse id="svg_8" ry="43.5" rx="80" cy="95" cx="146.5" stroke-linecap="null" stroke-linejoin="null" stroke-dasharray="null" stroke-width="0" fill="#aad4ff" stroke="#000000" transform="rotate(5 146.50000000000014,95.00000000000007) "/>
 </g>
 <g>
  <title>cloud</title>
  <ellipse id="svg_6" ry="59" rx="114" cy="63" cx="116.5" stroke-linecap="null" stroke-linejoin="null" stroke-dasharray="null" stroke-width="0" fill="#aad4ff" stroke="#000000" transform="rotate(5 116.4999999999998,63.0000000000001) "/>
 </g>
</svg>