<svg width="640" height="480" xmlns="http://www.w3.org/2000/svg" xmlns:svg="http://www.w3.org/2000/svg">
 <!-- Created with SVG-edit - http://svg-edit.googlecode.com/ -->
 <g>
  <title>rain</title>
  <g id="svg_10">
   <line fill="none" stroke="#495073" stroke-dasharray="null" stroke-linejoin="null" stroke-linecap="null" x1="39" y1="128" x2="-9" y2="190" id="svg_27" fill-opacity="0"/>
   <line fill="none" stroke="#495073" stroke-dasharray="null" stroke-linejoin="null" stroke-linecap="null" x1="124" y1="143.5" x2="76" y2="205.5" fill-opacity="0" id="svg_28"/>
   <line fill="none" stroke="#495073" stroke-dasharray="null" stroke-linejoin="null" stroke-linecap="null" x1="200" y1="125.5" x2="152" y2="187.5" fill-opacity="0" stroke-opacity="0.3" id="svg_29"/>
   <line fill="none" stroke="#495073" stroke-dasharray="null" stroke-linejoin="null" stroke-linecap="null" fill-opacity="0" x1="32" y1="154" x2="10" y2="184" id="svg_31"/>
   <line fill="none" stroke="#495073" stroke-dasharray="null" stroke-linejoin="null" stroke-linecap="null" fill-opacity="0" x1="45" y1="169.5" x2="23" y2="199.5" id="svg_32"/>
   <line fill="none" stroke="#495073" stroke-dasharray="null" stroke-linejoin="null" stroke-linecap="null" fill-opacity="0" x1="139" y1="164.5" x2="117" y2="194.5" id="svg_33"/>
   <line fill="none" stroke="#495073" stroke-dasharray="null" stroke-linejoin="null" stroke-linecap="null" fill-opacity="0" x1="69" y1="173.5" x2="47" y2="203.5" id="svg_34"/>
   <line fill="none" stroke="#495073" stroke-dasharray="null" stroke-linejoin="null" stroke-linecap="null" fill-opacity="0" x1="262" y1="121.5" x2="240" y2="151.5" id="svg_35"/>
   <line fill="none" stroke="#495073" stroke-dasharray="null" stroke-linejoin="null" stroke-linecap="null" x1="182.25" y1="142" x2="134.25" y2="204" fill-opacity="0" id="svg_36"/>
   <line fill="none" stroke="#495073" stroke-dasharray="null" stroke-linejoin="null" stroke-linecap="null" x1="69.25" y1="155.5" x2="21.25" y2="217.5" fill-opacity="0" id="svg_37"/>
   <line fill="none" stroke="#495073" stroke-dasharray="null" stroke-linejoin="null" stroke-linecap="null" x1="145.25" y1="137.5" x2="97.25" y2="199.5" fill-opacity="0" id="svg_38"/>
   <line fill="none" stroke="#495073" stroke-dasharray="null" stroke-linejoin="null" stroke-linecap="null" x1="155.25" y1="160.5" x2="107.25" y2="222.5" fill-opacity="0" stroke-opacity="0.6" id="svg_39"/>
   <line fill="none" stroke="#495073" stroke-dasharray="null" stroke-linejoin="null" stroke-linecap="null" fill-opacity="0" x1="194.25" y1="162" x2="172.25" y2="192" id="svg_40"/>
   <line fill="none" stroke="#495073" stroke-dasharray="null" stroke-linejoin="null" stroke-linecap="null" fill-opacity="0" x1="188.25" y1="183.5" x2="166.25" y2="213.5" id="svg_41"/>
   <line fill="none" stroke="#495073" stroke-dasharray="null" stroke-linejoin="null" stroke-linecap="null" fill-opacity="0" x1="84.25" y1="176.5" x2="62.25" y2="206.5" stroke-opacity="0.5" id="svg_42"/>
   <line fill="none" stroke="#495073" stroke-dasharray="null" stroke-linejoin="null" stroke-linecap="null" fill-opacity="0" x1="182.25" y1="162.5" x2="160.25" y2="192.5" id="svg_43"/>
   <line fill="none" stroke="#495073" stroke-dasharray="null" stroke-linejoin="null" stroke-linecap="null" x1="93.75" y1="137.75" x2="45.75" y2="199.75" fill-opacity="0" stroke-opacity="0.3" id="svg_44"/>
   <line fill="none" stroke="#495073" stroke-dasharray="null" stroke-linejoin="null" stroke-linecap="null" x1="56.75" y1="133.25" x2="8.75" y2="195.25" fill-opacity="0" stroke-opacity="0.3" id="svg_45"/>
   <line fill="none" stroke="#495073" stroke-dasharray="null" stroke-linejoin="null" stroke-linecap="null" fill-opacity="0" x1="99.75" y1="179.25" x2="77.75" y2="209.25" id="svg_46"/>
   <line fill="none" stroke="#495073" stroke-dasharray="null" stroke-linejoin="null" stroke-linecap="null" fill-opacity="0" x1="51" y1="169.75" x2="29" y2="199.75" id="svg_47"/>
   <line fill="none" stroke="#495073" stroke-dasharray="null" stroke-linejoin="null" stroke-linecap="null" fill-opacity="0" x1="54" y1="151.25" x2="32" y2="181.25" id="svg_48"/>
   <line fill="none" stroke="#495073" stroke-dasharray="null" stroke-linejoin="null" stroke-linecap="null" fill-opacity="0" x1="91" y1="157.25" x2="69" y2="187.25" id="svg_49"/>
   <line fill="none" stroke="#495073" stroke-dasharray="null" stroke-linejoin="null" stroke-linecap="null" x1="245.875" y1="132.625" x2="197.875" y2="194.625" fill-opacity="0" stroke-opacity="0.4" id="svg_50"/>
   <line fill="none" stroke="#495073" stroke-dasharray="null" stroke-linejoin="null" stroke-linecap="null" fill-opacity="0" x1="251.875" y1="174.125" x2="229.875" y2="204.125" id="svg_51"/>
   <line fill="none" stroke="#495073" stroke-dasharray="null" stroke-linejoin="null" stroke-linecap="null" x1="263.625" y1="137.875" x2="215.625" y2="199.875" fill-opacity="0" id="svg_53"/>
   <line fill="none" stroke="#495073" stroke-dasharray="null" stroke-linejoin="null" stroke-linecap="null" fill-opacity="0" x1="257.875" y1="174.375" x2="235.875" y2="204.375" id="svg_55"/>
   <line fill="none" stroke="#495073" stroke-dasharray="null" stroke-linejoin="null" stroke-linecap="null" fill-opacity="0" x1="168.875" y1="129.875" x2="146.875" y2="159.875" id="svg_56"/>
   <line fill="none" stroke="#495073" stroke-dasharray="null" stroke-linejoin="null" stroke-linecap="null" fill-opacity="0" x1="227" y1="133.5" x2="205" y2="163.5" id="svg_58"/>
   <line fill="none" stroke="#495073" stroke-dasharray="null" stroke-linejoin="null" stroke-linecap="null" fill-opacity="0" x1="263" y1="167.5" x2="241" y2="197.5" id="svg_59"/>
   <line fill="none" stroke="#495073" stroke-dasharray="null" stroke-linejoin="null" stroke-linecap="null" fill-opacity="0" x1="227" y1="133.5" x2="205" y2="163.5" id="svg_60"/>
   <line fill="none" stroke="#495073" stroke-dasharray="null" stroke-linejoin="null" stroke-linecap="null" fill-opacity="0" x1="257.875" y1="174.375" x2="235.875" y2="204.375" id="svg_61"/>
   <line fill="none" stroke="#495073" stroke-dasharray="null" stroke-linejoin="null" stroke-linecap="null" x1="245.875" y1="132.625" x2="197.875" y2="194.625" fill-opacity="0" stroke-opacity="0.4" id="svg_62"/>
   <line fill="none" stroke="#495073" stroke-dasharray="null" stroke-linejoin="null" stroke-linecap="null" fill-opacity="0" x1="251.875" y1="174.125" x2="229.875" y2="204.125" id="svg_63"/>
   <line fill="none" stroke="#495073" stroke-dasharray="null" stroke-linejoin="null" stroke-linecap="null" x1="263.625" y1="137.875" x2="215.625" y2="199.875" fill-opacity="0" id="svg_64"/>
   <line fill="none" stroke="#495073" stroke-dasharray="null" stroke-linejoin="null" stroke-linecap="null" fill-opacity="0" x1="213" y1="163.5" x2="191" y2="193.5" id="svg_65"/>
   <line fill="none" stroke="#495073" stroke-dasharray="null" stroke-linejoin="null" stroke-linecap="null" fill-opacity="0" x1="227" y1="133.5" x2="205" y2="163.5" id="svg_66"/>
   <line fill="none" stroke="#495073" stroke-dasharray="null" stroke-linejoin="null" stroke-linecap="null" fill-opacity="0" x1="257.875" y1="174.375" x2="235.875" y2="204.375" id="svg_67"/>
   <line fill="none" stroke="#495073" stroke-dasharray="null" stroke-linejoin="null" stroke-linecap="null" x1="245.875" y1="132.625" x2="197.875" y2="194.625" fill-opacity="0" stroke-opacity="0.4" id="svg_68"/>
   <line fill="none" stroke="#495073" stroke-dasharray="null" stroke-linejoin="null" stroke-linecap="null" fill-opacity="0" x1="251.875" y1="174.125" x2="229.875" y2="204.125" id="svg_69"/>
   <line fill="none" stroke="#495073" stroke-dasharray="null" stroke-linejoin="null" stroke-linecap="null" x1="263.625" y1="137.875" x2="215.625" y2="199.875" fill-opacity="0" id="svg_70"/>
   <line fill="none" stroke="#495073" stroke-dasharray="null" stroke-linejoin="null" stroke-linecap="null" fill-opacity="0" x1="263" y1="167.5" x2="241" y2="197.5" id="svg_71"/>
   <line fill="none" stroke="#495073" stroke-dasharray="null" stroke-linejoin="null" stroke-linecap="null" x1="218.75" y1="148.5" x2="170.75" y2="210.5" fill-opacity="0" id="svg_1"/>
   <line fill="none" stroke="#495073" stroke-dasharray="null" stroke-linejoin="null" stroke-linecap="null" fill-opacity="0" x1="163.75" y1="178.5" x2="141.75" y2="208.5" id="svg_2"/>
   <line fill="none" stroke="#495073" stroke-dasharray="null" stroke-linejoin="null" stroke-linecap="null" x1="164" y1="160.5" x2="116" y2="222.5" fill-opacity="0" id="svg_3"/>
   <line fill="none" stroke="#495073" stroke-dasharray="null" stroke-linejoin="null" stroke-linecap="null" x1="240" y1="142.5" x2="192" y2="204.5" fill-opacity="0" id="svg_4"/>
   <line fill="none" stroke="#495073" stroke-dasharray="null" stroke-linejoin="null" stroke-linecap="null" fill-opacity="0" x1="179" y1="181.5" x2="157" y2="211.5" stroke-opacity="0.5" id="svg_5"/>
   <line fill="none" stroke="#495073" stroke-dasharray="null" stroke-linejoin="null" stroke-linecap="null" x1="188.5" y1="142.75" x2="140.5" y2="204.75" fill-opacity="0" stroke-opacity="0.3" id="svg_7"/>
   <line fill="none" stroke="#495073" stroke-dasharray="null" stroke-linejoin="null" stroke-linecap="null" fill-opacity="0" x1="194.5" y1="184.25" x2="172.5" y2="214.25" id="svg_9"/>
  </g>
 </g>
 <g display="inline">
  <title>cloud2</title>
  <path stroke="#000000" d="m261,315c-2.60001,-0.94284 -3.39999,-0.99774 -4.40533,-1c-0.93866,-0.00211 -1.536,0 -2.68083,0c-0.94701,0 -1.46851,0 -2.5925,0c-0.5965,0 -1.21201,0 -2.48801,0c-1.31866,0 -1.99049,0 -2.66933,0c-0.68483,0 -1.37466,0 -2.76534,0c-1.39867,0 -2.10002,-0.00241 -2.80933,0.004c-0.72537,0.00653 -1.47495,0.02164 -2.25601,0.0585c-0.82169,0.03879 -1.69189,0.09637 -2.616,0.19351c-2.0538,0.21591 -3.18895,0.40146 -4.388,0.59866c-1.24736,0.20517 -2.52235,0.43735 -3.8085,0.68698c-1.2832,0.24905 -2.54401,0.50702 -3.76349,0.77701c-2.26053,0.50049 -3.26474,0.75488 -4.18668,0.99466c-0.84833,0.22061 -1.62616,0.43716 -2.34149,0.64502c-0.66194,0.19235 -1.27426,0.38022 -1.84651,0.55499c-1.04921,0.32043 -1.53938,0.46567 -2.01067,0.60266c-0.45306,0.13168 -0.88997,0.25653 -1.30949,0.384c-0.40579,0.12329 -0.79898,0.24527 -1.1745,0.384c-0.72673,0.26846 -1.07077,0.42819 -1.39999,0.60001c-0.93938,0.4903 -1.49445,0.82965 -2.345,1.49448c-0.74492,0.58224 -1.34485,1.22232 -1.90018,1.77869c-0.72748,0.72882 -1.28761,1.25107 -1.75883,1.9295c-0.66489,0.95724 -0.87253,1.55148 -1.17949,2.47498c-0.33122,0.99652 -0.50131,1.72058 -0.7045,2.44235c-0.19693,0.69955 -0.60001,1.896 -1,2.68799l-0.60001,0.70801l-0.60001,0.60001l-0.59866,0.60001" id="svg_21" stroke-linecap="null" stroke-linejoin="null" stroke-dasharray="null" stroke-width="0" fill="none"/>
  <ellipse fill="#495073" stroke-width="0" stroke-dasharray="null" stroke-linejoin="null" stroke-linecap="null" cx="167" cy="82.5" rx="107.5" ry="49" fill-opacity="0.8" id="svg_8" stroke="#000000"/>
  <ellipse fill="#495073" stroke-width="0" stroke-dasharray="null" stroke-linejoin="null" stroke-linecap="null" cx="110.5" cy="79" rx="94" ry="70.5" fill-opacity="0.8" id="svg_11" stroke="#000000"/>
 </g>
 <g>
  <title>cloud</title>
  <ellipse stroke="#000000" fill="#495073" stroke-width="0" stroke-dasharray="null" stroke-linejoin="null" stroke-linecap="null" cx="145" cy="105" rx="136.5" ry="57" fill-opacity="0.95" id="svg_6"/>
 </g>
</svg>