<svg width="235" height="235" xmlns="http://www.w3.org/2000/svg" xmlns:svg="http://www.w3.org/2000/svg">
 <g>
  <title>rain</title>
  <line fill="none" stroke-dasharray="null" stroke-linejoin="null" stroke-linecap="null" x1="62.56245" y1="193.31252" x2="64.24995" y2="197.81252" id="svg_29" transform="rotate(18 63.406196594238196,195.5625152587891) " stroke="#aad4ff"/>
  <line fill="none" stroke="#aad4ff" stroke-dasharray="null" stroke-linejoin="null" stroke-linecap="null" x1="155.93745" y1="213.56252" x2="157.62495" y2="218.06252" transform="rotate(23 156.78118896484375,215.81251525878906) " id="svg_33"/>
  <line fill="none" stroke="#aad4ff" stroke-dasharray="null" stroke-linejoin="null" stroke-linecap="null" x1="112.06245" y1="212.43752" x2="113.74995" y2="216.93752" transform="rotate(23 112.90619659423857,214.68751525878898) " id="svg_37"/>
  <line fill="none" stroke-dasharray="null" stroke-linejoin="null" stroke-linecap="null" x1="111.2211" y1="185.15614" x2="112.9086" y2="189.65614" transform="rotate(18 112.06484222412101,187.40614318847656) " stroke="#aad4ff" id="svg_38"/>
  <line fill="none" stroke="#aad4ff" stroke-dasharray="null" stroke-linejoin="null" stroke-linecap="null" x1="204.5961" y1="205.40614" x2="206.2836" y2="209.90614" transform="rotate(23 205.43983459472648,207.6561431884766) " id="svg_39"/>
  <line fill="none" stroke="#aad4ff" stroke-dasharray="null" stroke-linejoin="null" stroke-linecap="null" x1="160.7211" y1="204.28114" x2="162.4086" y2="208.78114" transform="rotate(23 161.56484985351568,206.53114318847653) " id="svg_40"/>
  <line fill="none" stroke-dasharray="null" stroke-linejoin="null" stroke-linecap="null" x1="164.6586" y1="169.96864" x2="166.3461" y2="174.46864" transform="rotate(18 165.50233459472668,172.21864318847653) " stroke="#aad4ff" id="svg_44"/>
  <line fill="none" stroke="#aad4ff" stroke-dasharray="null" stroke-linejoin="null" stroke-linecap="null" x1="214.1586" y1="189.09364" x2="215.8461" y2="193.59364" transform="rotate(23 215.0023498535156,191.34364318847656) " id="svg_46"/>
  <line fill="none" stroke-dasharray="null" stroke-linejoin="null" stroke-linecap="null" x1="111.22109" y1="185.15614" x2="112.90859" y2="189.65614" transform="rotate(18 112.06482696533207,187.40614318847656) " stroke="#aad4ff" id="svg_47"/>
  <line fill="none" stroke="#aad4ff" stroke-dasharray="null" stroke-linejoin="null" stroke-linecap="null" x1="204.59609" y1="205.40614" x2="206.28359" y2="209.90614" transform="rotate(23 205.4398498535156,207.6561431884766) " id="svg_48"/>
  <line fill="none" stroke-dasharray="null" stroke-linejoin="null" stroke-linecap="null" x1="72.68751" y1="211.59364" x2="74.37501" y2="216.09364" transform="rotate(18 73.53124237060561,213.84364318847656) " stroke="#aad4ff" id="svg_50"/>
  <line fill="none" stroke="#aad4ff" stroke-dasharray="null" stroke-linejoin="null" stroke-linecap="null" x1="186.31251" y1="182.625" x2="188.00001" y2="187.125" transform="rotate(23 187.15626525878898,184.87500000000003) " id="svg_59"/>
  <line fill="none" stroke="#aad4ff" stroke-dasharray="null" stroke-linejoin="null" stroke-linecap="null" x1="191.65391" y1="210.1875" x2="193.34141" y2="214.6875" transform="rotate(23 192.4976654052734,212.4375) " id="svg_63"/>
  <line fill="none" stroke="#aad4ff" stroke-dasharray="null" stroke-linejoin="null" stroke-linecap="null" x1="80.00001" y1="201.75" x2="81.68751" y2="206.25" transform="rotate(23 80.84375000000004,204) " id="svg_64"/>
  <line fill="none" stroke="#aad4ff" stroke-dasharray="null" stroke-linejoin="null" stroke-linecap="null" x1="36.12501" y1="200.625" x2="37.81251" y2="205.125" transform="rotate(23 36.9687576293945,202.875) " id="svg_65"/>
  <line fill="none" stroke="#aad4ff" stroke-dasharray="null" stroke-linejoin="null" stroke-linecap="null" x1="80" y1="201.75" x2="81.6875" y2="206.25" transform="rotate(23 80.84376525878899,204) " id="svg_68"/>
  <line fill="none" stroke="#aad4ff" stroke-dasharray="null" stroke-linejoin="null" stroke-linecap="null" x1="168.87501" y1="175.875" x2="170.56251" y2="180.375" transform="rotate(23 169.71875000000014,178.12499999999997) " id="svg_70"/>
  <line fill="none" stroke="#aad4ff" stroke-dasharray="null" stroke-linejoin="null" stroke-linecap="null" x1="125.00001" y1="174.75" x2="126.68751" y2="179.25" transform="rotate(23 125.8437576293946,177.00000000000003) " id="svg_71"/>
  <line fill="none" stroke="#aad4ff" stroke-dasharray="null" stroke-linejoin="null" stroke-linecap="null" x1="146.93751" y1="214.6875" x2="148.62501" y2="219.1875" transform="rotate(23 147.78126525878903,216.9375) " id="svg_73"/>
  <line fill="none" stroke="#aad4ff" stroke-dasharray="null" stroke-linejoin="null" stroke-linecap="null" x1="130.34141" y1="202.3125" x2="132.02891" y2="206.8125" transform="rotate(23 131.18516540527344,204.5625) " id="svg_75"/>
  <line fill="none" stroke="#aad4ff" stroke-dasharray="null" stroke-linejoin="null" stroke-linecap="null" x1="195.87501" y1="156.1875" x2="197.56251" y2="160.6875" transform="rotate(23 196.71876525878898,158.4375) " id="svg_77"/>
  <line fill="none" stroke="#aad4ff" stroke-dasharray="null" stroke-linejoin="null" stroke-linecap="null" x1="201.21641" y1="183.75" x2="202.90391" y2="188.25" transform="rotate(23 202.0601654052736,186.00000000000003) " id="svg_81"/>
  <line fill="none" stroke-dasharray="null" stroke-linejoin="null" stroke-linecap="null" x1="77.74766" y1="167.15614" x2="79.43516" y2="171.65614" transform="rotate(18 78.59138488769518,169.40614318847656) " stroke="#aad4ff" id="svg_87"/>
  <line fill="none" stroke="#aad4ff" stroke-dasharray="null" stroke-linejoin="null" stroke-linecap="null" x1="70.43515" y1="184.03114" x2="72.12265" y2="188.53114" transform="rotate(23 71.27891540527345,186.28114318847656) " id="svg_88"/>
  <line fill="none" stroke="#aad4ff" stroke-dasharray="null" stroke-linejoin="null" stroke-linecap="null" x1="41.18516" y1="156.1875" x2="42.87266" y2="160.6875" transform="rotate(23 42.02890014648436,158.43750000000003) " id="svg_89"/>
  <line fill="none" stroke="#aad4ff" stroke-dasharray="null" stroke-linejoin="null" stroke-linecap="null" x1="63.12266" y1="196.125" x2="64.81016" y2="200.625" transform="rotate(23 63.966415405273445,198.375) " id="svg_90"/>
  <line fill="none" stroke="#aad4ff" stroke-dasharray="null" stroke-linejoin="null" stroke-linecap="null" x1="46.52656" y1="183.75" x2="48.21406" y2="188.25" transform="rotate(23 47.37031555175783,186) " id="svg_91"/>
  <line fill="none" stroke-dasharray="null" stroke-linejoin="null" stroke-linecap="null" x1="25.81016" y1="172.8124" x2="27.49766" y2="177.3124" transform="rotate(18 26.65386962890627,175.06239318847656) " stroke="#aad4ff" id="svg_92"/>
  <line fill="none" stroke="#aad4ff" stroke-dasharray="null" stroke-linejoin="null" stroke-linecap="null" x1="18.49765" y1="189.6874" x2="20.18515" y2="194.1874" transform="rotate(23 19.34143066406235,191.93740844726565) " id="svg_93"/>
  <line fill="none" stroke-dasharray="null" stroke-linejoin="null" stroke-linecap="null" x1="146.65977" y1="160.25" x2="148.34727" y2="164.75" transform="rotate(18 147.5035095214844,162.5) " stroke="#aad4ff" id="svg_1"/>
  <line fill="none" stroke-dasharray="null" stroke-linejoin="null" stroke-linecap="null" x1="146.65976" y1="160.25" x2="148.34726" y2="164.75" transform="rotate(18 147.5035095214844,162.5) " stroke="#aad4ff" id="svg_2"/>
  <line fill="none" stroke="#aad4ff" stroke-dasharray="null" stroke-linejoin="null" stroke-linecap="null" x1="160.43868" y1="149.84386" x2="162.12618" y2="154.34386" transform="rotate(23 161.28244018554676,152.09385681152347) " id="svg_3"/>
  <line fill="none" stroke-dasharray="null" stroke-linejoin="null" stroke-linecap="null" x1="113.18633" y1="142.25" x2="114.87383" y2="146.75" transform="rotate(18 114.03005981445307,144.5) " stroke="#aad4ff" id="svg_4"/>
  <line fill="none" stroke="#aad4ff" stroke-dasharray="null" stroke-linejoin="null" stroke-linecap="null" x1="105.87382" y1="159.125" x2="107.56132" y2="163.625" transform="rotate(23 106.71755981445305,161.37500000000003) " id="svg_5"/>
  <line fill="none" stroke-dasharray="null" stroke-linejoin="null" stroke-linecap="null" x1="58.65977" y1="166.25" x2="60.34727" y2="170.75" transform="rotate(18 59.503509521484325,168.5) " stroke="#aad4ff" id="svg_7"/>
  <line fill="none" stroke-dasharray="null" stroke-linejoin="null" stroke-linecap="null" x1="58.65976" y1="166.25" x2="60.34726" y2="170.75" transform="rotate(18 59.503509521484325,168.5) " stroke="#aad4ff" id="svg_9"/>
  <line fill="none" stroke="#aad4ff" stroke-dasharray="null" stroke-linejoin="null" stroke-linecap="null" x1="72.43868" y1="155.84386" x2="74.12618" y2="160.34386" transform="rotate(23 73.28244018554688,158.09385681152344) " id="svg_10"/>
  <line fill="none" stroke-dasharray="null" stroke-linejoin="null" stroke-linecap="null" x1="25.18633" y1="148.25" x2="26.87383" y2="152.75" transform="rotate(18 26.030059814453114,150.5) " stroke="#aad4ff" id="svg_12"/>
  <line fill="none" stroke="#aad4ff" stroke-dasharray="null" stroke-linejoin="null" stroke-linecap="null" x1="17.87382" y1="165.125" x2="19.56132" y2="169.625" transform="rotate(23 18.71759033203134,167.375) " id="svg_13"/>
  <line fill="none" stroke-dasharray="null" stroke-linejoin="null" stroke-linecap="null" x1="130.65977" y1="189.25" x2="132.34727" y2="193.75" transform="rotate(18 131.50350952148446,191.5) " stroke="#aad4ff" id="svg_14"/>
  <line fill="none" stroke-dasharray="null" stroke-linejoin="null" stroke-linecap="null" x1="130.65976" y1="189.25" x2="132.34726" y2="193.75" transform="rotate(18 131.50350952148446,191.5) " stroke="#aad4ff" id="svg_15"/>
  <line fill="none" stroke="#aad4ff" stroke-dasharray="null" stroke-linejoin="null" stroke-linecap="null" x1="144.43868" y1="178.84386" x2="146.12618" y2="183.34386" transform="rotate(23 145.28244018554696,181.09385681152344) " id="svg_16"/>
  <line fill="none" stroke-dasharray="null" stroke-linejoin="null" stroke-linecap="null" x1="97.18633" y1="171.25" x2="98.87383" y2="175.75" transform="rotate(18 98.0300598144531,173.5) " stroke="#aad4ff" id="svg_17"/>
  <line fill="none" stroke="#aad4ff" stroke-dasharray="null" stroke-linejoin="null" stroke-linecap="null" x1="89.87382" y1="188.125" x2="91.56132" y2="192.625" transform="rotate(23 90.71759033203124,190.375) " id="svg_18"/>
  <line fill="none" stroke-dasharray="null" stroke-linejoin="null" stroke-linecap="null" x1="181.658" y1="160.35921" x2="183.3455" y2="164.85921" transform="rotate(18 182.5017395019531,162.60920715332034) " stroke="#aad4ff" id="svg_19"/>
  <line fill="none" stroke="#aad4ff" stroke-dasharray="null" stroke-linejoin="null" stroke-linecap="null" x1="185.87441" y1="166.26557" x2="187.56191" y2="170.76557" transform="rotate(23 186.7181701660155,168.5155792236328) " id="svg_20"/>
  <line fill="none" stroke="#aad4ff" stroke-dasharray="null" stroke-linejoin="null" stroke-linecap="null" x1="185.8744" y1="166.26557" x2="187.5619" y2="170.76557" transform="rotate(23 186.7181701660155,168.5155792236328) " id="svg_21"/>
  <line fill="none" stroke="#aad4ff" stroke-dasharray="null" stroke-linejoin="null" stroke-linecap="null" x1="212.87441" y1="146.57807" x2="214.56191" y2="151.07807" transform="rotate(23 213.7181701660156,148.8280639648438) " id="svg_22"/>
  <line fill="none" stroke="#aad4ff" stroke-dasharray="null" stroke-linejoin="null" stroke-linecap="null" x1="177.43809" y1="140.23443" x2="179.12559" y2="144.73443" transform="rotate(23 178.28186035156256,142.48443603515622) " id="svg_23"/>
  <line id="svg_24" fill="none" stroke="#aad4ff" stroke-dasharray="null" stroke-linejoin="null" stroke-linecap="null" x1="172.26438" y1="194.3282" x2="173.95188" y2="198.8282" transform="rotate(23 173.10812377929688,196.5782012939453) "/>
  <line id="svg_25" fill="none" stroke="#aad4ff" stroke-dasharray="null" stroke-linejoin="null" stroke-linecap="null" x1="177.04803" y1="185.04682" x2="178.73553" y2="189.54682" transform="rotate(23 177.8917846679688,187.29681396484375) "/>
  <line id="svg_26" fill="none" stroke="#aad4ff" stroke-dasharray="null" stroke-linejoin="null" stroke-linecap="null" x1="163.26444" y1="195.45318" x2="164.95194" y2="199.95318" transform="rotate(23 164.10818481445324,197.70318603515622) "/>
 </g>
 <g display="inline">
  <title>cloud2</title>
  <ellipse fill="#77adcd" stroke-width="0" stroke-dasharray="null" stroke-linejoin="null" stroke-linecap="null" cx="154" cy="92.5" rx="80" ry="43.5" fill-opacity="0.8" id="svg_8" stroke="#000000"/>
  <ellipse fill="#77adcd" stroke-width="0" stroke-dasharray="null" stroke-linejoin="null" stroke-linecap="null" cx="73.5" cy="89" rx="71.5" ry="60" fill-opacity="0.8" id="svg_11" stroke="#000000"/>
 </g>
 <g>
  <title>cloud</title>
  <ellipse stroke="#000000" fill="#77adcd" stroke-width="0" stroke-dasharray="null" stroke-linejoin="null" stroke-linecap="null" cx="118.5" cy="61.5" rx="114" ry="59" fill-opacity="0.95" id="svg_6"/>
 </g>
</svg>