<svg width="235" height="235" xmlns="http://www.w3.org/2000/svg" xmlns:svg="http://www.w3.org/2000/svg">
 <g>
  <title>snow</title>
  <polygon id="svg_19" fill="#dedddf" points="124.13770294189453,185 120.06885147094727,192.04745483398438 111.93114852905273,192.04745483398438 107.86229705810547,185 111.93114852905273,177.95254516601562 120.06885147094727,177.95254516601562 124.13770294189453,185 " stroke="#000000" stroke-width="0" fill-opacity="0.7" transform="rotate(45 116.00000000000009,184.99999999999997) "/>
  <polygon fill="#dedddf" points="129.16282653808594,212.5 126.33140563964844,217.0725860595703 120.66859436035156,217.0725860595703 117.83717346191406,212.5 120.66859436035156,207.9274139404297 126.33140563964844,207.9274139404297 129.16282653808594,212.5 " stroke-width="0" transform="rotate(45 123.50000000000014,212.49999999999994) " id="svg_20" stroke="#000000"/>
  <polygon fill="#dedddf" points="80.662841796875,202.5 77.8314208984375,207.0725860595703 72.1685791015625,207.0725860595703 69.337158203125,202.5 72.1685791015625,197.9274139404297 77.8314208984375,197.9274139404297 80.662841796875,202.5 " stroke-width="0" transform="rotate(45 75.0000000000001,202.49999999999997) " stroke="#000000" id="svg_21"/>
  <polygon fill="#f1eff2" points="164.1376953125,179.5 160.06884765625,186.54745483398438 151.93115234375,186.54745483398438 147.8623046875,179.5 151.93115234375,172.45254516601562 160.06884765625,172.45254516601562 164.1376953125,179.5 " stroke="#000000" stroke-width="0" transform="rotate(45 156.00000000000003,179.49999999999997) " id="svg_27"/>
  <polygon fill="#dedddf" points="197.662841796875,198.5 194.8314208984375,203.07257080078125 189.1685791015625,203.07257080078125 186.337158203125,198.5 189.1685791015625,193.9274139404297 194.8314208984375,193.9274139404297 197.662841796875,198.5 " stroke-width="0" transform="rotate(45 192.00000000000009,198.49999999999994) " stroke="#000000" id="svg_30"/>
  <polygon fill="#ffffff" points="62.662841796875,186.5 59.8314208984375,191.0725860595703 54.1685791015625,191.0725860595703 51.337158203125,186.5 54.1685791015625,181.9274139404297 59.8314208984375,181.9274139404297 62.662841796875,186.5 " stroke-width="0" transform="rotate(45 57.000000000000064,186.49999999999997) " stroke="#000000" id="svg_31"/>
  <polygon fill="#dedddf" points="30.662841796875,175.5 27.8314208984375,180.0725860595703 22.1685791015625,180.0725860595703 19.337158203125,175.5 22.1685791015625,170.9274139404297 27.8314208984375,170.9274139404297 30.662841796875,175.5 " stroke-width="0" fill-opacity="0.6" transform="rotate(45 25.00000000000005,175.49999999999997) " stroke="#000000" id="svg_32"/>
  <polygon fill="#dedddf" points="170.662841796875,142.5 167.8314208984375,147.0725860595703 162.1685791015625,147.0725860595703 159.337158203125,142.5 162.1685791015625,137.9274139404297 167.8314208984375,137.9274139404297 170.662841796875,142.5 " stroke-width="0" transform="rotate(45 165.0000000000001,142.49999999999994) " stroke="#000000" id="svg_33"/>
  <polygon fill="#ffffff" points="176.14849853515625,215.71875 174.80859375,217.90484619140625 172.12890625,217.90484619140625 170.78900146484375,215.71875 172.12890625,213.53265380859375 174.80859375,213.53265380859375 176.14849853515625,215.71875 " stroke-width="0" transform="rotate(45 173.46875000000006,215.71874999999994) " id="svg_34" stroke="null"/>
  <polygon fill="#ffffff" points="47.10162353515625,208.8359375 45.76171875,211.02203369140625 43.08203125,211.02203369140625 41.74212646484375,208.8359375 43.08203125,206.64984130859375 45.76171875,206.64984130859375 47.10162353515625,208.8359375 " stroke-width="0" transform="rotate(45 44.42187500000004,208.83593749999997) " stroke="null" id="svg_35"/>
  <polygon fill="#ffffff" points="202.39849853515625,154.0703125 201.05859375,156.25640869140625 198.37890625,156.25640869140625 197.03900146484375,154.0703125 198.37890625,151.88421630859375 201.05859375,151.88421630859375 202.39849853515625,154.0703125 " stroke-width="0" transform="rotate(45 199.71874999999997,154.0703125) " stroke="null" id="svg_36"/>
  <polygon fill="#ffffff" points="111.42974853515625,162.0234375 110.08984375,164.20953369140625 107.41015625,164.20953369140625 106.07025146484375,162.0234375 107.41015625,159.83734130859375 110.08984375,159.83734130859375 111.42974853515625,162.0234375 " stroke-width="0" transform="rotate(45 108.75000000000009,162.02343749999997) " stroke="null" id="svg_37"/>
  <polygon fill="#ffffff" points="50.03912353515625,164.4140625 48.69921875,166.60015869140625 46.01953125,166.60015869140625 44.67962646484375,164.4140625 46.01953125,162.22796630859375 48.69921875,162.22796630859375 50.03912353515625,164.4140625 " stroke-width="0" transform="rotate(45 47.359375000000014,164.4140625) " stroke="null" id="svg_38"/>
  <polygon fill="#ffffff" points="191.662841796875,167.5 188.8314208984375,172.0725860595703 183.1685791015625,172.0725860595703 180.337158203125,167.5 183.1685791015625,162.9274139404297 188.8314208984375,162.9274139404297 191.662841796875,167.5 " stroke-width="0" transform="rotate(45 186.00000000000009,167.49999999999997) " stroke="#000000" id="svg_1"/>
 </g>
 <g display="inline">
  <title>cloud2</title>
  <ellipse stroke="#000000" fill="#d4e6f9" stroke-width="0" stroke-dasharray="null" stroke-linejoin="null" stroke-linecap="null" cx="146.5" cy="95" rx="80" ry="43.5" fill-opacity="0.8" id="svg_8"/>
  <ellipse stroke="#000000" fill="#d4e6f9" stroke-width="0" stroke-dasharray="null" stroke-linejoin="null" stroke-linecap="null" cx="74" cy="95.5" rx="71.5" ry="60" fill-opacity="0.8" id="svg_11"/>
 </g>
 <g>
  <title>cloud</title>
  <ellipse stroke="#000000" fill="#e3edf7" stroke-width="0" stroke-dasharray="null" stroke-linejoin="null" stroke-linecap="null" cx="116.5" cy="63" rx="114" ry="59" fill-opacity="0.95" id="svg_6"/>
 </g>
</svg>