<svg aria-hidden="true" style="position: absolute; width: 0; height: 0; overflow: hidden;" version="1.1" xmlns="http://www.w3.org/2000/svg" xmlns:xlink="http://www.w3.org/1999/xlink">
<defs>
<symbol id="icon-thermometer" viewBox="0 0 32 32">
<title>thermometer</title>
<path d="M18 22.555v-18.372c0-1.206-0.896-2.182-2-2.182s-2 0.977-2 2.182v18.372c-1.19 0.693-2 1.969-2 3.445 0 2.208 1.792 4 4 4s4-1.792 4-4c0-1.477-0.809-2.753-2-3.445z"></path>
</symbol>
<symbol id="icon-droplet" viewBox="0 0 24 24">
<title>droplet</title>
<path d="M18.4 7.6l-5.7-5.6c-0.2-0.2-0.4-0.3-0.7-0.3v0c-0.3 0-0.5 0.1-0.7 0.3l-5.6 5.6c0 0 0 0 0 0-1.8 1.7-2.7 4-2.7 6.4s0.9 4.7 2.6 6.4c1.7 1.7 4 2.6 6.4 2.6 0 0 0 0 0 0 2.4 0 4.7-0.9 6.4-2.6 3.5-3.5 3.5-9.2 0-12.8zM17 19c-1.4 1.3-3.1 2-5 2 0 0 0 0 0 0-1.9 0-3.6-0.7-4.9-2-1.4-1.4-2.1-3.1-2.1-5s0.7-3.6 2-4.9c0 0 0 0 0 0l4.9-5 5 5c2.8 2.7 2.8 7.1 0.1 9.9z"></path>
</symbol>
<symbol id="icon-sunrise" viewBox="0 0 24 24">
<title>sunrise</title>
<path d="M12 12c-3.3 0-6 2.7-6 6 0 0.6 0.4 1 1 1s1-0.4 1-1c0-2.2 1.8-4 4-4s4 1.8 4 4c0 0.6 0.4 1 1 1s1-0.4 1-1c0-3.3-2.7-6-6-6z"></path>
<path d="M4.9 12.3c0.2 0.2 0.5 0.3 0.7 0.3s0.5-0.1 0.7-0.3c0.4-0.4 0.4-1 0-1.4l-1.4-1.4c-0.4-0.4-1-0.4-1.4 0s-0.4 1 0 1.4l1.4 1.4z"></path>
<path d="M1 19h2c0.6 0 1-0.4 1-1s-0.4-1-1-1h-2c-0.6 0-1 0.4-1 1s0.4 1 1 1z"></path>
<path d="M20 18c0 0.6 0.4 1 1 1h2c0.6 0 1-0.4 1-1s-0.4-1-1-1h-2c-0.6 0-1 0.4-1 1z"></path>
<path d="M18.4 12.6c0.3 0 0.5-0.1 0.7-0.3l1.4-1.4c0.4-0.4 0.4-1 0-1.4s-1-0.4-1.4 0l-1.4 1.4c-0.4 0.4-0.4 1 0 1.4 0.1 0.2 0.4 0.3 0.7 0.3z"></path>
<path d="M23 21h-22c-0.6 0-1 0.4-1 1s0.4 1 1 1h22c0.6 0 1-0.4 1-1s-0.4-1-1-1z"></path>
<path d="M8.7 6.7l2.3-2.3v4.6c0 0.6 0.4 1 1 1s1-0.4 1-1v-4.6l2.3 2.3c0.2 0.2 0.4 0.3 0.7 0.3s0.5-0.1 0.7-0.3c0.4-0.4 0.4-1 0-1.4l-4-4c-0.1-0.1-0.2-0.2-0.3-0.2-0.2-0.1-0.5-0.1-0.8 0-0.1 0.1-0.2 0.1-0.3 0.2l-4 4c-0.4 0.4-0.4 1 0 1.4s1 0.4 1.4 0z"></path>
</symbol>
<symbol id="icon-sunset" viewBox="0 0 24 24">
<title>sunset</title>
<path d="M12 12c-3.3 0-6 2.7-6 6 0 0.6 0.4 1 1 1s1-0.4 1-1c0-2.2 1.8-4 4-4s4 1.8 4 4c0 0.6 0.4 1 1 1s1-0.4 1-1c0-3.3-2.7-6-6-6z"></path>
<path d="M4.9 12.3c0.2 0.2 0.5 0.3 0.7 0.3s0.5-0.1 0.7-0.3c0.4-0.4 0.4-1 0-1.4l-1.4-1.4c-0.4-0.4-1-0.4-1.4 0s-0.4 1 0 1.4l1.4 1.4z"></path>
<path d="M1 19h2c0.6 0 1-0.4 1-1s-0.4-1-1-1h-2c-0.6 0-1 0.4-1 1s0.4 1 1 1z"></path>
<path d="M20 18c0 0.6 0.4 1 1 1h2c0.6 0 1-0.4 1-1s-0.4-1-1-1h-2c-0.6 0-1 0.4-1 1z"></path>
<path d="M18.4 12.6c0.3 0 0.5-0.1 0.7-0.3l1.4-1.4c0.4-0.4 0.4-1 0-1.4s-1-0.4-1.4 0l-1.4 1.4c-0.4 0.4-0.4 1 0 1.4 0.1 0.2 0.4 0.3 0.7 0.3z"></path>
<path d="M23 21h-22c-0.6 0-1 0.4-1 1s0.4 1 1 1h22c0.6 0 1-0.4 1-1s-0.4-1-1-1z"></path>
<path d="M11.3 9.7c0.1 0.1 0.2 0.2 0.3 0.2 0.1 0.1 0.3 0.1 0.4 0.1s0.3 0 0.4-0.1c0.1-0.1 0.2-0.1 0.3-0.2l4-4c0.4-0.4 0.4-1 0-1.4s-1-0.4-1.4 0l-2.3 2.3v-4.6c0-0.6-0.4-1-1-1s-1 0.4-1 1v4.6l-2.3-2.3c-0.4-0.4-1-0.4-1.4 0s-0.4 1 0 1.4l4 4z"></path>
</symbol>
</defs>
</svg>
